<?xml version="1.0" encoding="utf-8"?>
<!-- Generator: Adobe Illustrator 24.1.1, SVG Export Plug-In . SVG Version: 6.00 Build 0)  -->
<svg version="1.1" id="Layer_1" xmlns="http://www.w3.org/2000/svg" xmlns:xlink="http://www.w3.org/1999/xlink" x="0px" y="0px"
	 viewBox="0 0 328.29 376.26" style="enable-background:new 0 0 328.29 376.26;" xml:space="preserve">
<style type="text/css">
	.st0{fill:#C8E60C;}
	.st1{fill:#98BF2E;}
	.st2{fill:#6C8E1E;}
</style>
<g>
	<polygon class="st0" points="11.87,88.77 160.52,0 315.87,88.77 261.68,121.29 163.87,60.65 64,121.29 	"/>
	<polygon class="st1" points="0,106.84 0,285.42 153.29,376.26 153.29,310.71 56.77,252.39 56.26,140.39 	"/>
	<polygon class="st2" points="328.29,106.84 328.29,285.42 175,376.26 175,310.71 271.52,252.39 272.03,140.39 	"/>
	<polygon class="st2" points="163.87,190.97 163.87,282.32 243.61,236.65 243.61,146.58 	"/>
	<polygon class="st0" points="163.87,100.65 243.61,146.58 163.87,190.97 87.74,145.81 	"/>
	<polygon class="st1" points="87.74,235.87 87.74,145.81 163.87,190.97 163.87,282.32 	"/>
</g>
</svg>
